<svg xmlns="http://www.w3.org/2000/svg" viewBox="0 0 900 420" role="img" aria-labelledby="title desc"><title id="title">PCS LLC bucket truck</title><desc id="desc">A gold and white side-view bucket truck on a navy background.</desc><defs><linearGradient id="cab" x1="0" x2="1"><stop stop-color="#f4b44a"/><stop offset="1" stop-color="#d98412"/></linearGradient></defs><g fill="none" stroke="#f4b44a" stroke-linecap="round" stroke-linejoin="round"><path d="M108 304h632" stroke="#ffffff" stroke-width="12" opacity=".18"/><path d="M170 272h370v-112h-148l-49 54H170z" fill="url(#cab)" stroke-width="8"/><path d="M197 214h130l38-43h-168z" stroke="#102434" stroke-width="7" opacity=".9"/><path d="M540 190h168v82H540z" fill="#f4b44a" fill-opacity=".28" stroke-width="8"/><path d="M590 190v-35l52-12M642 143l91-104M733 39l51 31" stroke-width="14"/><path d="M781 57h45v48h-61V75" fill="#ffffff" fill-opacity=".9" stroke-width="8"/><path d="M430 160v112" stroke="#102434" stroke-width="8" opacity=".65"/><circle cx="265" cy="283" r="50" fill="#102434" stroke="#ffffff" stroke-width="10"/><circle cx="265" cy="283" r="19" fill="#f4b44a" stroke="none"/><circle cx="640" cy="283" r="50" fill="#102434" stroke="#ffffff" stroke-width="10"/><circle cx="640" cy="283" r="19" fill="#f4b44a" stroke="none"/><path d="M140 272h635" stroke="#ffffff" stroke-width="9"/></g></svg>