<svg xmlns="http://www.w3.org/2000/svg" viewBox="0 0 900 420" role="img" aria-labelledby="title desc"><title id="title">PCS LLC bucket truck</title><desc id="desc">A bright amber bucket truck with light wheels for the dark Shop Floor design.</desc><defs><linearGradient id="cab" x1="0" x2="1"><stop stop-color="#ffc33d"/><stop offset="1" stop-color="#e78d00"/></linearGradient></defs><g fill="none" stroke="#ffb000" stroke-linecap="round" stroke-linejoin="round"><path d="M108 304h632" stroke="#dbe8ef" stroke-width="12" opacity=".22"/><path d="M170 272h370v-112h-148l-49 54H170z" fill="url(#cab)" stroke="#ffd36a" stroke-width="8"/><path d="M197 214h130l38-43h-168z" stroke="#0b1116" stroke-width="7" opacity=".9"/><path d="M540 190h168v82H540z" fill="#ffb000" fill-opacity=".3" stroke="#ffd36a" stroke-width="8"/><path d="M590 190v-35l52-12M642 143l91-104M733 39l51 31" stroke="#ffd36a" stroke-width="14"/><path d="M781 57h45v48h-61V75" fill="#eaf4f8" fill-opacity=".95" stroke="#ffd36a" stroke-width="8"/><path d="M430 160v112" stroke="#0b1116" stroke-width="8" opacity=".7"/><circle cx="265" cy="283" r="50" fill="#eaf4f8" stroke="#ffb000" stroke-width="10"/><circle cx="265" cy="283" r="19" fill="#34414b" stroke="none"/><circle cx="640" cy="283" r="50" fill="#eaf4f8" stroke="#ffb000" stroke-width="10"/><circle cx="640" cy="283" r="19" fill="#34414b" stroke="none"/><path d="M140 272h635" stroke="#eaf4f8" stroke-width="9"/></g></svg>